<svg xmlns="http://www.w3.org/2000/svg" width="18" height="14" fill="none"><path d="M15.667.333H2.333C1.417.333.675 1.083.675 2L.667 12a1.67 1.67 0 0 0 1.667 1.667h13.333A1.67 1.67 0 0 0 17.333 12V2A1.67 1.67 0 0 0 15.667.333zm-.333 3.542L9.442 7.558c-.267.167-.617.167-.883 0L2.667 3.875a.71.71 0 0 1-.34-.442.71.71 0 0 1 .086-.551.71.71 0 0 1 .458-.318.71.71 0 0 1 .546.111L9 6.167l5.583-3.492a.71.71 0 0 1 .546-.111.71.71 0 0 1 .261.112c.079.055.146.125.196.206a.71.71 0 0 1 .099.267c.015.095.01.191-.014.284s-.066.18-.124.256-.132.139-.215.186z" fill="#bdbdbd"/></svg>