<svg xmlns="http://www.w3.org/2000/svg" width="176" height="19" fill="none"><path d="M14.238 13.828c0 .649-.121 1.207-.363 1.676-.234.469-.551.867-.949 1.195s-.859.598-1.383.809c-.516.203-1.055.363-1.617.48a12.52 12.52 0 0 1-1.699.234l-1.582.058c-.484 0-.988-.019-1.512-.058a14.9 14.9 0 0 1-1.547-.176 14.31 14.31 0 0 1-1.523-.34c-.5-.148-.973-.332-1.418-.551L.621 2.063c.437-.18.902-.34 1.395-.48a13.98 13.98 0 0 1 1.5-.363c.516-.102 1.027-.176 1.535-.223.508-.055 1-.082 1.477-.082a13.5 13.5 0 0 1 1.676.105c.57.07 1.117.188 1.641.352a7.06 7.06 0 0 1 1.465.645c.453.258.848.578 1.184.961.344.383.609.828.797 1.336.195.508.293 1.094.293 1.758a3.94 3.94 0 0 1-.187 1.23c-.125.383-.305.727-.539 1.031a3.43 3.43 0 0 1-.855.785c-.336.211-.715.367-1.137.469.508.133.969.328 1.383.586.422.258.777.57 1.066.938a4 4 0 0 1 .68 1.242c.164.461.246.953.246 1.476zm-5.953-6.68c0-.227-.047-.418-.141-.574-.094-.164-.211-.297-.352-.398-.133-.102-.281-.176-.445-.223-.156-.047-.297-.07-.422-.07a1.51 1.51 0 0 0-.457.07c-.148.047-.293.102-.434.164l-.07 2.602a5.89 5.89 0 0 0 .668-.047 2.81 2.81 0 0 0 .762-.199 1.72 1.72 0 0 0 .633-.469c.172-.211.258-.496.258-.855zm-1.664 3.82c-.227 0-.445.023-.656.07l-.047 2.672.34.07a2.56 2.56 0 0 0 .34.024c.164 0 .344-.016.539-.047a1.75 1.75 0 0 0 .551-.211 1.32 1.32 0 0 0 .422-.434c.117-.18.176-.418.176-.715s-.059-.539-.176-.726a1.22 1.22 0 0 0-.41-.434c-.164-.109-.344-.18-.539-.211a2.77 2.77 0 0 0-.539-.059zm21.094-2.438a14.9 14.9 0 0 1-.141 2.039l-3.984.422-3.961.563c.203.563.519 1.012.949 1.348.438.336.957.504 1.559.504.313 0 .652-.059 1.019-.176.375-.117.746-.262 1.113-.434l1.055-.574.867-.551-.562 5.32a5.1 5.1 0 0 1-.996.598 6.6 6.6 0 0 1-1.102.398 8.44 8.44 0 0 1-1.16.223 9.63 9.63 0 0 1-1.148.07c-.773 0-1.48-.105-2.121-.316s-1.223-.504-1.746-.879a6.73 6.73 0 0 1-1.359-1.348 7.84 7.84 0 0 1-.973-1.687c-.258-.609-.453-1.254-.586-1.934a10.73 10.73 0 0 1-.199-2.062 12.1 12.1 0 0 1 .199-2.18 11.13 11.13 0 0 1 .598-2.098c.273-.672.613-1.293 1.02-1.863a7.36 7.36 0 0 1 1.441-1.512 6.43 6.43 0 0 1 1.852-1.008c.695-.242 1.461-.363 2.297-.363.695 0 1.328.098 1.898.293.578.188 1.09.453 1.535.797a5.21 5.21 0 0 1 1.172 1.207 6.65 6.65 0 0 1 .82 1.547c.219.555.379 1.145.48 1.77a10.79 10.79 0 0 1 .164 1.887zm-4.687-.609a3.29 3.29 0 0 0-.07-.668 2.04 2.04 0 0 0-.234-.633c-.102-.187-.238-.34-.41-.457-.172-.125-.387-.187-.645-.187a1.4 1.4 0 0 0-.832.258c-.234.164-.437.375-.609.633-.172.25-.312.523-.422.82a6.27 6.27 0 0 0-.246.82l3.469-.328v-.258zM40.5 12c0 1.07-.187 1.996-.562 2.777-.367.774-.875 1.414-1.523 1.922-.641.5-1.395.871-2.262 1.113a10.52 10.52 0 0 1-2.777.352c-.383 0-.805-.051-1.266-.152l-1.383-.375-1.359-.492-1.148-.504.516-4.594a8.39 8.39 0 0 0 2.203.914 9.83 9.83 0 0 0 2.391.305l.539-.012a2.89 2.89 0 0 0 .598-.105c.195-.062.359-.152.492-.27s.199-.285.199-.504a.53.53 0 0 0-.141-.375c-.094-.109-.215-.195-.363-.258-.148-.07-.316-.121-.504-.152-.187-.039-.371-.066-.551-.082l-.504-.023h-.375c-.672 0-1.285-.106-1.84-.316-.547-.211-1.02-.508-1.418-.891a4.13 4.13 0 0 1-.914-1.406c-.219-.555-.328-1.168-.328-1.84 0-.922.183-1.746.551-2.473.375-.734.871-1.355 1.488-1.863.625-.516 1.34-.91 2.144-1.184s1.637-.41 2.496-.41l1.184.047a10.38 10.38 0 0 1 1.207.141c.406.07.801.16 1.184.27a6.97 6.97 0 0 1 1.09.41l-.445 4.758a13.48 13.48 0 0 0-1.676-.445c-.578-.125-1.145-.187-1.699-.187l-.398.012a3.91 3.91 0 0 0-.504.035 4.33 4.33 0 0 0-.527.082c-.18.039-.34.094-.48.164-.141.063-.254.148-.34.258s-.125.238-.117.387c.008.172.07.305.188.398.125.094.281.164.469.211.195.039.406.059.633.059l.691-.012.633-.035c.195-.016.355-.02.48-.012.625.039 1.187.172 1.687.398s.922.527 1.266.902c.352.375.617.824.797 1.348.187.516.281 1.086.281 1.711zM53.391 1.477l-.117 4.969-3.492.141-.422 10.875-4.945.258-.445-10.875-3.492.188.141-5.531 12.773-.023zm81.07 5.719c0 .758-.113 1.43-.34 2.016s-.539 1.102-.937 1.547a5.53 5.53 0 0 1-1.383 1.113c-.531.297-1.102.543-1.711.738-.602.188-1.227.328-1.875.422a16.05 16.05 0 0 1-1.91.141v4.992h-5.461v-2.602l.023-5.027.024-2.613.011-2.859.059-2.883c1-.297 2-.52 3-.668s2.031-.223 3.094-.223c.601 0 1.203.051 1.804.152a8.34 8.34 0 0 1 1.723.457 7.32 7.32 0 0 1 1.535.797c.477.313.887.688 1.231 1.125s.613.938.808 1.5c.203.563.305 1.188.305 1.875zm-5.203.398c0-.508-.156-.902-.469-1.184-.305-.289-.703-.434-1.195-.434a3.02 3.02 0 0 0-.516.047 4.56 4.56 0 0 0-.492.094l-.141 3.422c.11.016.215.023.317.023h.316a2.35 2.35 0 0 0 .809-.141c.265-.094.5-.227.703-.398.203-.18.363-.387.48-.621.125-.242.188-.512.188-.809zm16.148 4.195l-.492 5.203-9.867.773.375-16.734h6.094l-.868 10.758h4.758zm15.328 5.203l-5.812.75-.703-2.648h-2.672l-.586 2.648-5.977-.586 4.664-15.609 6.516-.328 4.57 15.773zm-6.937-5.484l-.891-4.078-.867 4.078h1.758zm21.726.563l-.035 2.625-.082 2.602-6.75-.117.61-4.137a33.86 33.86 0 0 0 .257-4.184l-.011-.492-.047-.762-.106-.879c-.039-.305-.097-.582-.175-.832-.071-.25-.161-.453-.27-.609-.102-.164-.226-.246-.375-.246-.266 0-.492.078-.68.234a1.96 1.96 0 0 0-.457.609 3.88 3.88 0 0 0-.281.82l-.164.914-.07.867-.012.656-.094 4.125-.093 4.125-5.977.258.445-8.227.352-8.227 5.531-.281-.047 1.875c.219-.266.453-.516.703-.75a4.59 4.59 0 0 1 .821-.598 3.94 3.94 0 0 1 .914-.398c.328-.102.672-.152 1.031-.152.664 0 1.246.109 1.746.328a3.96 3.96 0 0 1 1.289.891 4.96 4.96 0 0 1 .902 1.336c.243.508.438 1.051.586 1.629s.262 1.184.34 1.816l.153 1.852.046 1.77v1.559z" fill="#333"/><path d="M71.156 1.477l-.117 4.969-3.492.141-.422 10.875-4.945.258-.445-10.875-3.492.188.141-5.531 12.773-.023zm14.918 7.547c0 .711-.082 1.398-.246 2.062a7.91 7.91 0 0 1-.715 1.852 7.54 7.54 0 0 1-1.125 1.594 7.05 7.05 0 0 1-1.488 1.23c-.547.344-1.144.613-1.793.809a7.39 7.39 0 0 1-2.062.281 7.43 7.43 0 0 1-2.016-.27c-.633-.18-1.227-.43-1.781-.75-.555-.328-1.059-.719-1.512-1.172-.445-.461-.828-.969-1.148-1.524-.312-.562-.559-1.164-.738-1.805a7.7 7.7 0 0 1-.258-2.004 8.09 8.09 0 0 1 .246-1.992c.164-.656.398-1.273.703-1.852a8.15 8.15 0 0 1 1.125-1.594c.438-.484.926-.902 1.465-1.254a7.16 7.16 0 0 1 1.769-.82c.633-.195 1.301-.293 2.004-.293 1.133 0 2.164.176 3.094.527.938.352 1.734.855 2.391 1.512.664.648 1.176 1.438 1.535 2.367.367.922.551 1.953.551 3.094zm-5.203.305a3.13 3.13 0 0 0-.152-.973 2.52 2.52 0 0 0-.422-.844 2.08 2.08 0 0 0-.703-.598 1.88 1.88 0 0 0-.949-.234c-.367 0-.695.066-.984.199s-.539.316-.75.551c-.203.227-.359.496-.469.809-.109.305-.164.629-.164.973 0 .328.047.656.141.984s.234.625.422.891.418.48.691.645c.281.164.606.246.973.246s.695-.07.984-.211c.297-.148.547-.344.75-.586.203-.25.359-.535.469-.856a3.06 3.06 0 0 0 .164-.996zM100.863 1.5l-.902 8.215-.715 8.215-4.805.351.211-1.805c-.156.18-.34.336-.551.469a3.22 3.22 0 0 1-.656.328c-.234.078-.477.137-.727.176a4.51 4.51 0 0 1-.715.035c-.531-.008-1.031-.109-1.5-.305-.469-.203-.898-.469-1.289-.797a6.52 6.52 0 0 1-1.055-1.16 8.55 8.55 0 0 1-.797-1.395c-.211-.492-.375-.992-.492-1.5-.109-.508-.164-1-.164-1.476l.035-2.18.152-2.273.27-2.25.434-2.133 2.871.129 2.871.035-.539 2.051-.469 2.063-.34 2.074a17.17 17.17 0 0 0-.129 2.109l.023.703c.016.305.055.605.117.902.07.297.172.559.305.785a.66.66 0 0 0 .586.328c.297 0 .563-.125.797-.375.234-.258.441-.601.621-1.031s.332-.926.457-1.488l.328-1.758.223-1.863.117-1.758.059-1.488.023-1.02-.012-.457-.035-.457 1.512.035 1.512.012h1.172l1.195-.047zm14.438 5.203c0 .609-.055 1.164-.164 1.664a4.89 4.89 0 0 1-.492 1.359 4.91 4.91 0 0 1-.879 1.148 7.83 7.83 0 0 1-1.301 1.008l2.789 4.969-5.274 1.031-1.804-4.992-1.453.047-.211 4.875h-5.039l.105-5.32.129-5.32.047-2.672.094-2.672a15.34 15.34 0 0 1 1.617-.504 14.27 14.27 0 0 1 1.594-.305c.539-.078 1.082-.129 1.629-.152l1.699-.047c.89 0 1.75.125 2.578.375.836.242 1.574.609 2.215 1.102s1.152 1.105 1.535 1.84c.39.734.586 1.59.586 2.566zm-5.25.375a2.76 2.76 0 0 0-.141-.902c-.086-.273-.219-.508-.398-.703-.172-.203-.391-.359-.657-.469-.257-.117-.562-.176-.914-.176-.156 0-.308.012-.457.035-.148.016-.293.043-.433.082l-.188 4.359h.282c.335 0 .675-.043 1.019-.129.352-.086.664-.219.938-.398a2.13 2.13 0 0 0 .679-.691c.18-.281.27-.617.27-1.008z" fill="#ec1f46"/></svg>