<svg xmlns="http://www.w3.org/2000/svg" width="20" height="20" fill="#bdbdbd"><path d="M17.167 9.541h1.917c0-4.916-3.712-8.624-8.635-8.624v1.917c3.893 0 6.718 2.82 6.718 6.707zm-6.709-2.874c2.015 0 2.875.86 2.875 2.875h1.917c0-3.091-1.701-4.792-4.792-4.792v1.917zm3.279 5.216a.96.96 0 0 0-1.333.041l-2.293 2.359c-.552-.105-1.662-.451-2.804-1.591s-1.488-2.256-1.591-2.804l2.357-2.294a.96.96 0 0 0 .041-1.333L4.573 2.367a.96.96 0 0 0-1.333-.083L1.16 4.067a.96.96 0 0 0-.278.622c-.014.24-.288 5.915 4.112 10.317 3.839 3.838 8.648 4.119 9.972 4.119.194 0 .312-.006.344-.008a.95.95 0 0 0 .621-.279l1.783-2.081a.96.96 0 0 0-.082-1.333l-3.895-3.542z"/></svg>