<svg xmlns="http://www.w3.org/2000/svg" width="8" height="8" fill="#f2994a"><path fill-rule="evenodd" d="M4 .333c.127 0 .243.072.299.186l.953 1.93 2.13.311c.126.018.23.106.269.227s.006.253-.085.342L6.025 4.83l.364 2.121c.021.125-.03.251-.133.326s-.239.084-.351.025L4 6.3 2.095 7.302c-.112.059-.248.049-.351-.025s-.154-.201-.133-.326l.364-2.121L.434 3.329C.343 3.24.311 3.108.35 2.987s.143-.209.269-.227l2.13-.311.953-1.93C3.757.405 3.873.333 4 .333zM4 1.42l-.731 1.481c-.049.098-.142.166-.251.182l-1.635.239 1.183 1.152c.079.077.115.187.096.295l-.279 1.628 1.462-.769c.097-.051.213-.051.31 0l1.462.769-.279-1.628c-.019-.108.017-.219.096-.295l1.183-1.152-1.635-.239c-.108-.016-.202-.084-.251-.182L4 1.42z"/><path d="M2.333 5L1 3l2-.333L4 1l1 1.667 2 .667-1.333 1.333L6 7 4 6 2 7l.333-2z"/></svg>