<svg xmlns="http://www.w3.org/2000/svg" width="12" height="12" fill="#fff"  fill-rule="evenodd"><path d="M1.604 8.021c.547-.547 1.289-.854 2.062-.854h4.667c.774 0 1.515.307 2.062.854s.854 1.289.854 2.062v1.167c0 .322-.261.583-.583.583s-.583-.261-.583-.583v-1.167a1.75 1.75 0 0 0-1.75-1.75H3.667a1.75 1.75 0 0 0-1.75 1.75v1.167c0 .322-.261.583-.583.583S.75 11.572.75 11.25v-1.167c0-.774.307-1.515.854-2.062zM6 1.333a1.75 1.75 0 1 0 0 3.5 1.75 1.75 0 1 0 0-3.5zm-2.917 1.75A2.92 2.92 0 0 1 6 .167a2.92 2.92 0 0 1 2.917 2.917C8.917 4.695 7.611 6 6 6a2.92 2.92 0 0 1-2.917-2.917z"/></svg>