<svg xmlns="http://www.w3.org/2000/svg" width="153" height="175" fill="none"><path d="M37.969 34.875c0 1.729-.323 3.219-.969 4.469a9.7 9.7 0 0 1-2.531 3.187c-1.063.875-2.292 1.594-3.688 2.156a26.48 26.48 0 0 1-4.312 1.281c-1.5.312-3.011.521-4.531.625l-4.219.156c-1.292 0-2.636-.052-4.031-.156-1.375-.083-2.75-.24-4.125-.469a38.18 38.18 0 0 1-4.062-.906 24.15 24.15 0 0 1-3.781-1.469L1.656 3.5c1.167-.479 2.406-.906 3.719-1.281 1.313-.396 2.646-.719 4-.969a40.38 40.38 0 0 1 4.094-.594C14.823.51 16.135.438 17.406.438a36 36 0 0 1 4.469.281c1.521.188 2.979.5 4.375.938a18.83 18.83 0 0 1 3.906 1.719c1.208.688 2.261 1.542 3.156 2.563.917 1.021 1.625 2.208 2.125 3.563.521 1.354.781 2.917.781 4.688a10.51 10.51 0 0 1-.5 3.281 9.11 9.11 0 0 1-1.438 2.75c-.625.812-1.385 1.51-2.281 2.094-.896.563-1.906.979-3.031 1.25a13.29 13.29 0 0 1 3.687 1.563c1.125.688 2.073 1.521 2.844 2.5a10.67 10.67 0 0 1 1.813 3.313c.438 1.229.656 2.542.656 3.938zM22.094 17.063c0-.604-.125-1.115-.375-1.531-.25-.437-.563-.792-.938-1.062-.354-.271-.75-.469-1.187-.594-.417-.125-.792-.187-1.125-.187-.417 0-.823.063-1.219.188s-.781.271-1.156.438l-.188 6.938c.479 0 1.073-.042 1.781-.125a7.49 7.49 0 0 0 2.031-.531c.667-.292 1.229-.708 1.687-1.25.458-.563.688-1.323.688-2.281zM17.656 27.25c-.604 0-1.187.063-1.75.188l-.125 7.125.906.188c.313.042.615.063.906.063.437 0 .917-.042 1.437-.125.521-.104 1.011-.292 1.469-.562.458-.292.833-.677 1.125-1.156.313-.479.469-1.115.469-1.906s-.156-1.437-.469-1.937c-.292-.5-.656-.885-1.094-1.156a3.58 3.58 0 0 0-1.437-.563c-.521-.104-1-.156-1.438-.156zm56.25-6.5a39.75 39.75 0 0 1-.375 5.438 129.33 129.33 0 0 0-10.625 1.125l-10.562 1.5c.542 1.5 1.385 2.698 2.531 3.594 1.167.896 2.552 1.344 4.156 1.344.833 0 1.74-.156 2.719-.469 1-.312 1.99-.698 2.969-1.156a36.13 36.13 0 0 0 2.812-1.531l2.313-1.469-1.5 14.188c-.813.625-1.698 1.156-2.656 1.594-.937.438-1.917.792-2.937 1.063a22.51 22.51 0 0 1-3.094.594 25.69 25.69 0 0 1-3.062.188c-2.063 0-3.948-.281-5.656-.844s-3.26-1.344-4.656-2.344c-1.375-1.021-2.583-2.219-3.625-3.594s-1.906-2.875-2.594-4.5-1.208-3.344-1.562-5.156a28.61 28.61 0 0 1-.531-5.5A32.26 32.26 0 0 1 38.5 19a29.7 29.7 0 0 1 1.594-5.594c.729-1.792 1.635-3.448 2.719-4.969 1.104-1.542 2.385-2.885 3.844-4.031s3.104-2.042 4.938-2.687C53.448 1.073 55.49.75 57.719.75c1.854 0 3.542.26 5.062.781 1.542.5 2.906 1.208 4.094 2.125A13.9 13.9 0 0 1 70 6.875 17.73 17.73 0 0 1 72.188 11a22.79 22.79 0 0 1 1.281 4.719c.292 1.646.437 3.323.437 5.031zm-12.5-1.625c0-.583-.062-1.177-.187-1.781-.125-.625-.333-1.188-.625-1.688-.271-.5-.636-.906-1.094-1.219-.458-.333-1.031-.5-1.719-.5-.833 0-1.573.229-2.219.688-.625.438-1.167 1-1.625 1.688a9.86 9.86 0 0 0-1.125 2.188c-.292.792-.51 1.521-.656 2.188l9.25-.875v-.687zM108 30c0 2.854-.5 5.323-1.5 7.406-.979 2.063-2.333 3.771-4.062 5.125-1.709 1.333-3.719 2.323-6.032 2.969-2.292.625-4.76.938-7.406.938-1.021 0-2.146-.135-3.375-.406l-3.687-1-3.625-1.312a85.99 85.99 0 0 1-3.062-1.344l1.375-12.25c1.771 1.063 3.729 1.875 5.875 2.438 2.167.542 4.292.813 6.375.813l1.438-.031c.563-.042 1.094-.136 1.594-.281.521-.167.958-.406 1.313-.719s.531-.761.531-1.344c0-.396-.125-.729-.375-1-.25-.292-.573-.521-.969-.687-.396-.187-.844-.323-1.344-.406a12.54 12.54 0 0 0-1.469-.219l-1.344-.062h-1c-1.792 0-3.427-.281-4.906-.844-1.458-.562-2.719-1.354-3.781-2.375-1.042-1.042-1.854-2.292-2.437-3.75-.583-1.479-.875-3.114-.875-4.906 0-2.458.49-4.656 1.469-6.594 1-1.958 2.323-3.615 3.969-4.969 1.667-1.375 3.573-2.427 5.719-3.156A20.55 20.55 0 0 1 93.063.938l3.156.125a27.68 27.68 0 0 1 3.219.375 30.28 30.28 0 0 1 3.156.719c1.021.292 1.989.656 2.906 1.094l-1.188 12.688c-1.416-.479-2.906-.875-4.468-1.187-1.542-.333-3.052-.5-4.531-.5l-1.062.031c-.417 0-.865.031-1.344.094a11.54 11.54 0 0 0-1.406.219c-.479.104-.906.25-1.281.437-.375.167-.677.396-.906.688s-.333.635-.312 1.031c.021.458.188.813.5 1.063.333.25.75.438 1.25.563.521.104 1.083.156 1.688.156l1.844-.031 1.688-.094c.521-.042.948-.052 1.281-.031 1.667.104 3.167.458 4.5 1.063s2.458 1.406 3.375 2.406c.937 1 1.646 2.198 2.125 3.594.5 1.375.75 2.896.75 4.563zm34.375-28.062l-.313 13.25-9.312.375-1.125 29-13.187.688-1.188-29-9.312.5.374-14.75 34.063-.062zM38 145.188c0 2.02-.302 3.812-.906 5.374s-1.438 2.938-2.5 4.126c-1.042 1.166-2.271 2.156-3.688 2.968-1.417.792-2.937 1.448-4.562 1.969-1.604.5-3.271.875-5 1.125a42.9 42.9 0 0 1-5.094.375v13.313H1.688V167.5l.063-13.406.063-6.969.031-7.625.156-7.688c2.667-.791 5.333-1.385 8-1.781a56.11 56.11 0 0 1 8.25-.593 28.84 28.84 0 0 1 4.813.406 22.27 22.27 0 0 1 4.594 1.218 19.51 19.51 0 0 1 4.094 2.126 13.66 13.66 0 0 1 3.281 3c.917 1.166 1.636 2.5 2.156 4 .542 1.5.813 3.166.813 5zm-13.875 1.062c0-1.354-.417-2.406-1.25-3.156-.812-.771-1.875-1.156-3.187-1.156a8.06 8.06 0 0 0-1.375.124c-.458.063-.896.146-1.312.25l-.375 9.126c.292.041.573.062.844.062h.844a6.26 6.26 0 0 0 2.156-.375c.708-.25 1.333-.604 1.875-1.063a5.45 5.45 0 0 0 1.281-1.656c.333-.646.5-1.364.5-2.156zm43.063 11.188l-1.312 13.874-26.312 2.063 1-44.625h16.25L54.5 157.438h12.688zm40.875 13.874l-15.499 2-1.875-7.062h-7.125L82 173.312l-15.937-1.562L78.5 130.125l17.375-.875 12.187 42.062zm-18.499-14.624l-2.375-10.876-2.312 10.876h4.688zm57.938 1.5l-.094 7-.218 6.937-18-.313c.624-3.687 1.166-7.364 1.624-11.031a90.22 90.22 0 0 0 .688-11.156 42.26 42.26 0 0 0-.031-1.313 43.07 43.07 0 0 0-.125-2.031c-.063-.771-.156-1.552-.282-2.343-.104-.813-.26-1.553-.468-2.219-.188-.667-.427-1.209-.719-1.625-.271-.438-.604-.656-1-.656-.708 0-1.313.208-1.813.624-.479.417-.885.959-1.218 1.626-.313.645-.563 1.374-.75 2.187s-.334 1.625-.438 2.437c-.083.813-.146 1.584-.187 2.313l-.031 1.75-.5 22-15.938.687 1.188-21.937.937-21.937 14.75-.75-.125 5a21 21 0 0 1 1.875-2c.687-.626 1.417-1.157 2.187-1.594.771-.459 1.584-.813 2.438-1.063.875-.271 1.792-.406 2.75-.406 1.771 0 3.323.292 4.656.875s2.479 1.375 3.438 2.375 1.76 2.187 2.406 3.563a23.76 23.76 0 0 1 1.562 4.343 38.49 38.49 0 0 1 .907 4.844 58.04 58.04 0 0 1 .406 4.937 92.62 92.62 0 0 1 .125 4.719v4.157z" fill="#fff"/><path d="M34.688 65.938l-.312 13.25-9.312.375-1.125 28.999-13.187.688-1.187-29-9.312.5L.625 66l34.063-.062zm39.781 20.125c0 1.896-.219 3.729-.656 5.5-.437 1.75-1.073 3.396-1.906 4.938a20.1 20.1 0 0 1-3 4.25c-1.167 1.271-2.489 2.365-3.969 3.281-1.458.917-3.052 1.636-4.781 2.157-1.729.5-3.562.75-5.5.75-1.875 0-3.667-.24-5.375-.719-1.687-.479-3.271-1.146-4.75-2a20.29 20.29 0 0 1-4.031-3.125c-1.187-1.229-2.208-2.584-3.062-4.063-.833-1.5-1.49-3.104-1.969-4.812-.458-1.708-.688-3.49-.688-5.344 0-1.812.219-3.583.656-5.312a21.98 21.98 0 0 1 1.875-4.937c.833-1.542 1.833-2.958 3-4.25a19.88 19.88 0 0 1 3.906-3.344c1.458-.937 3.031-1.667 4.719-2.187s3.469-.781 5.344-.781c3.021 0 5.771.469 8.25 1.406 2.5.937 4.625 2.281 6.375 4.031 1.771 1.729 3.136 3.833 4.094 6.313.979 2.458 1.469 5.208 1.469 8.25zm-13.875.813a8.34 8.34 0 0 0-.406-2.594c-.25-.854-.625-1.604-1.125-2.25a5.55 5.55 0 0 0-1.875-1.594c-.729-.417-1.573-.625-2.531-.625-.979 0-1.854.177-2.625.531a6.07 6.07 0 0 0-2 1.469c-.542.604-.958 1.323-1.25 2.156a7.62 7.62 0 0 0-.437 2.594c0 .875.125 1.75.375 2.625s.625 1.667 1.125 2.375a6.04 6.04 0 0 0 1.844 1.719c.75.438 1.615.656 2.594.656s1.854-.187 2.625-.562c.792-.396 1.458-.917 2-1.562.542-.667.958-1.427 1.25-2.281a8.16 8.16 0 0 0 .438-2.656zM113.906 66c-.937 7.333-1.739 14.635-2.406 21.906l-1.906 21.906-12.813.938.563-4.812c-.417.479-.906.895-1.469 1.25-.542.354-1.125.645-1.75.874a11.86 11.86 0 0 1-1.937.469 11.94 11.94 0 0 1-1.906.094c-1.417-.021-2.75-.292-4-.813a13.93 13.93 0 0 1-3.437-2.124 17.42 17.42 0 0 1-2.813-3.094 22.82 22.82 0 0 1-2.125-3.719c-.562-1.312-1-2.646-1.312-4-.292-1.354-.438-2.667-.438-3.937a186.23 186.23 0 0 1 .094-5.812 118.5 118.5 0 0 1 .406-6.062c.188-2.021.427-4.021.719-6a63.78 63.78 0 0 1 1.156-5.687l7.656.344a134.31 134.31 0 0 0 7.656.094l-1.438 5.469c-.458 1.813-.875 3.646-1.25 5.5a71.15 71.15 0 0 0-.906 5.531 45.81 45.81 0 0 0-.344 5.625c0 .438.021 1.063.063 1.875a15.52 15.52 0 0 0 .312 2.406c.188.792.458 1.489.813 2.094.375.583.896.875 1.562.875.792 0 1.5-.333 2.125-1 .625-.687 1.177-1.604 1.656-2.75s.885-2.469 1.219-3.969a51.96 51.96 0 0 0 .875-4.688c.25-1.646.448-3.302.594-4.969a106.12 106.12 0 0 0 .313-4.687c.083-1.479.135-2.802.156-3.969l.062-2.719a23.23 23.23 0 0 0-.031-1.219c-.021-.396-.052-.802-.094-1.219l4.031.094 4.032.031h3.125c1.062-.021 2.125-.062 3.187-.125zm38.5 13.875c0 1.625-.146 3.104-.437 4.438a12.97 12.97 0 0 1-1.313 3.625c-.604 1.104-1.385 2.125-2.344 3.063s-2.114 1.833-3.468 2.688l7.437 13.251-14.062 2.75-4.813-13.313-3.875.125-.562 13h-13.438l.281-14.187.344-14.187.125-7.125a207.92 207.92 0 0 1 .25-7.125c1.459-.542 2.896-.99 4.313-1.344a38.1 38.1 0 0 1 4.25-.812 43.1 43.1 0 0 1 4.344-.406c1.479-.083 2.989-.125 4.531-.125a23.66 23.66 0 0 1 6.875 1c2.229.646 4.198 1.625 5.906 2.938s3.073 2.948 4.094 4.906c1.041 1.958 1.562 4.24 1.562 6.844zm-14 1c0-.875-.125-1.677-.375-2.406-.229-.729-.583-1.354-1.062-1.875a4.49 4.49 0 0 0-1.75-1.25c-.688-.313-1.5-.469-2.438-.469-.416 0-.823.031-1.219.094-.395.042-.781.114-1.156.219l-.5 11.625h.75c.896 0 1.802-.115 2.719-.344.937-.229 1.771-.583 2.5-1.063a5.68 5.68 0 0 0 1.813-1.844c.479-.75.718-1.646.718-2.687z" fill="#ec1f46"/></svg>